<?xml version="1.0" encoding="UTF-8"?>
<svg width="220px" height="252px" viewBox="0 0 220 252" version="1.1" xmlns="http://www.w3.org/2000/svg" xmlns:xlink="http://www.w3.org/1999/xlink">
    <!-- Generator: Sketch 52.2 (67145) - http://www.bohemiancoding.com/sketch -->
    <title>分组 9</title>
    <desc>Created with Sketch.</desc>
    <g id="Page-1" stroke="none" stroke-width="1" fill="none" fill-rule="evenodd">
        <g id="分组-9" transform="translate(-20.000000, 0.000000)" fill-rule="nonzero">
            <polygon id="矩形" fill="#BB3B00" transform="translate(75.560637, 55.730685) rotate(60.000000) translate(-75.560637, -55.730685) " points="54.5928948 -19.413491 96.5283786 4.67252332 96.5283786 130.874862 54.5928948 106.392961"></polygon>
            <polygon id="矩形" fill="#BB3B00" transform="translate(117.076766, 157.633911) rotate(60.000000) translate(-117.076766, -157.633911) " points="96.1090238 82.4897348 138.044508 106.575749 138.044508 232.778088 96.1090238 208.296186"></polygon>
            <polygon id="矩形" fill="#50A8C0" transform="translate(184.173540, 196.214556) rotate(60.000000) translate(-184.173540, -196.214556) " points="163.205798 121.07038 205.141282 145.156394 205.141282 271.358733 163.205798 246.876832"></polygon>
            <polygon id="矩形" fill="#50A8C0" transform="translate(142.657411, 94.311331) rotate(60.000000) translate(-142.657411, -94.311331) " points="121.689669 19.1671541 163.625153 43.2531685 163.625153 169.455507 121.689669 144.973606"></polygon>
            <polygon id="矩形" fill="#67DAF9" points="197.096774 38.1612903 239.032258 62.2473047 239.032258 188.449643 197.096774 163.967742"></polygon>
            <polygon id="矩形" fill="#F75307" points="130 -1.70530257e-13 171.935484 24.0860144 171.935484 150.288353 130 125.806452"></polygon>
            <polygon id="矩形" fill="#67DAF9" points="88.0645161 101.483871 130 125.569885 130 251.772224 88.0645161 227.290323"></polygon>
            <polygon id="矩形" fill="#F75307" points="20.9677419 62.9032258 62.9032258 86.9892402 62.9032258 213.191579 20.9677419 188.709677"></polygon>
        </g>
    </g>
</svg>